<?xml version="1.0" encoding="iso-8859-1"?>
<!-- Generator: Adobe Illustrator 19.0.0, SVG Export Plug-In . SVG Version: 6.00 Build 0)  -->
<svg version="1.1" id="Capa_1" xmlns="http://www.w3.org/2000/svg" xmlns:xlink="http://www.w3.org/1999/xlink" x="0px" y="0px"
	 viewBox="0 0 512.001 512.001" style="enable-background:new 0 0 512.001 512.001;" xml:space="preserve">
<g>
	<g>
		<path d="M504.397,0.042H125.783c-4.199,0-7.603,3.404-7.603,7.603c0,4.199,3.404,7.603,7.603,7.603h371.011v163.711H15.802V15.247
			h45.611c4.199,0,7.603-3.404,7.603-7.603c0-4.199-3.404-7.603-7.603-7.603H8.199C4,0.042,0.596,3.446,0.596,7.644v175.959
			C0.213,184.512,0,185.511,0,186.559v81.102v134.822v101.874c0,4.199,3.404,7.603,7.603,7.603h124.893h55.754h134.315h55.754
			h126.079c4.199,0,7.603-3.404,7.603-7.603V402.484V267.662V186.56V7.644C512,3.446,508.596,0.042,504.397,0.042z M15.206,275.264
			h64.367v119.617H15.206V275.264z M124.895,496.755h-0.001H15.206v-86.668h71.97c4.199,0,7.603-3.404,7.603-7.603V267.662
			c0-4.199-3.404-7.603-7.603-7.603h-71.97v-65.897H193.68c-5.226,2.793-10.295,5.935-15.16,9.465
			c-3.399,2.466-4.154,7.221-1.689,10.619s7.22,4.154,10.619,1.689c19.628-14.243,42.867-21.772,67.202-21.772
			c60.61,0,110.369,47.318,114.296,106.952h-39.17c-3.842-37.554-35.655-66.949-74.206-66.949
			c-38.551,0-70.365,29.395-74.206,66.949h-41.011c1.224-18.516,6.897-36.44,16.602-52.246c2.197-3.578,1.078-8.26-2.501-10.457
			c-3.578-2.197-8.26-1.078-10.457,2.501c-11.175,18.2-17.623,38.873-18.867,60.203h-9.36c-4.199,0-7.603,3.404-7.603,7.603v34.466
			c0,4.199,3.404,7.603,7.603,7.603h9.123V496.755z M304.571,350.785h10.39v119.617h-51.787V249.874
			c26.662,3.424,47.834,24.584,51.279,51.239h-9.882c-4.199,0-7.603,3.404-7.603,7.603v34.466
			C296.968,347.381,300.372,350.785,304.571,350.785z M207.51,301.114h-10.82c3.445-26.656,24.617-47.815,51.279-51.239v220.528
			h-52.116V350.785h11.658c4.199,0,7.603-3.404,7.603-7.603v-34.466C215.112,304.518,211.708,301.114,207.51,301.114z
			 M180.647,478.005v18.75h-40.548v-145.97h40.548V478.005z M188.249,335.58h-55.753h-9.123v-19.26h64.393
			c0.267,0.028,0.537,0.045,0.812,0.045c0.275,0,0.545-0.016,0.812-0.045h10.517v19.26H188.249z M314.962,496.755h-119.11v-11.148
			h119.11V496.755z M370.715,496.755h-40.548v-18.75v-127.22h40.548V496.755z M322.565,335.58h-10.39v-19.26h9.578
			c0.267,0.028,0.537,0.045,0.812,0.045s0.545-0.016,0.812-0.045h65.332v19.26h-10.39H322.565z M496.794,394.881h-64.367V275.264
			h64.367V394.881z M496.794,260.059h-71.97c-4.199,0-7.603,3.404-7.603,7.603v134.822c0,4.199,3.404,7.603,7.603,7.603h71.97
			v86.668H385.921v-145.97h10.39c4.199,0,7.603-3.404,7.603-7.603v-34.466c0-4.199-3.404-7.603-7.603-7.603h-12.128
			c-2.691-46.339-29.808-86.227-68.637-106.952h181.248V260.059z"/>
	</g>
</g>
<g>
	<g>
		<path d="M394.921,33.497H107.03c-4.199,0-7.603,3.404-7.603,7.603s3.404,7.603,7.603,7.603h287.891
			c4.199,0,7.603-3.404,7.603-7.603C402.523,36.901,399.119,33.497,394.921,33.497z"/>
	</g>
</g>
<g>
	<g>
		<path d="M394.921,145.511H107.03c-4.199,0-7.603,3.404-7.603,7.603s3.404,7.603,7.603,7.603h287.891
			c4.199,0,7.603-3.404,7.603-7.603S399.119,145.511,394.921,145.511z"/>
	</g>
</g>
<g>
	<g>
		<path d="M147.584,107.09c-3.151,0-5.745,0.927-5.93,3.799c-0.278,3.892-1.019,9.915-9.452,9.915
			c-6.393,0-9.915-3.428-9.915-10.656V84.295c0-7.229,3.521-10.657,9.729-10.657c8.803,0,9.452,6.301,9.635,9.174
			c0.093,2.781,2.595,3.799,6.023,3.799c4.077,0,6.023-1.112,6.023-5.93c0-10.75-9.174-17.607-22.054-17.607
			c-11.676,0-21.405,5.746-21.405,21.221v25.853c0,15.474,9.637,21.22,21.313,21.22c12.973,0,22.147-7.135,22.147-18.348
			C153.699,108.295,151.753,107.09,147.584,107.09z"/>
	</g>
</g>
<g>
	<g>
		<path d="M167.875,63.076c-3.058,0-6.023,1.112-6.023,3.706v60.233c0,2.502,2.966,3.799,6.023,3.799
			c2.965,0,6.023-1.298,6.023-3.799V66.782C173.898,64.188,170.84,63.076,167.875,63.076z"/>
	</g>
</g>
<g>
	<g>
		<path d="M223.937,63.076c-3.058,0-6.023,1.112-6.023,3.706v37.251l-17.885-34.564c-2.873-5.468-4.633-6.394-8.988-6.394
			c-3.058,0-6.023,1.204-6.023,3.799v60.14c0,2.502,2.966,3.799,6.023,3.799c2.965,0,6.023-1.298,6.023-3.799V89.762l19.923,37.251
			c1.575,2.873,4.077,3.799,6.95,3.8c2.965,0,6.023-1.298,6.023-3.799V66.782C229.96,64.188,226.902,63.076,223.937,63.076z"/>
	</g>
</g>
<g>
	<g>
		<path d="M279.349,120.25h-26.224v-18.626h14.085c2.595,0,3.799-2.502,3.799-4.634c0-2.502-1.39-4.819-3.799-4.819h-14.085V73.638
			h26.224c2.41,0,3.799-2.502,3.799-5.375c0-2.502-1.204-5.189-3.799-5.189H246.36c-2.688,0-5.282,1.298-5.282,3.799v60.141
			c0,2.502,2.595,3.799,5.282,3.799h32.989c2.595,0,3.799-2.686,3.799-5.189C283.148,122.752,281.758,120.25,279.349,120.25z"/>
	</g>
</g>
<g>
	<g>
		<path d="M337.819,63.074c-4.355,0-6.393,0.927-9.452,6.394l-11.398,20.758l-11.398-20.758c-3.058-5.468-5.004-6.394-9.359-6.394
			c-3.058,0-6.023,1.575-6.023,6.023v57.917c0,2.502,2.966,3.799,6.023,3.799c2.965,0,6.023-1.298,6.023-3.799V86.427l10.657,20.016
			c1.02,1.853,2.503,2.41,3.985,2.41s3.057-0.557,4.077-2.41l10.842-19.275v39.846c0,2.502,2.965,3.799,6.023,3.799
			c2.966,0,6.023-1.298,6.023-3.799V69.098C343.842,64.65,340.876,63.074,337.819,63.074z"/>
	</g>
</g>
<g>
	<g>
		<path d="M401.663,124.883l-17.885-58.287c-0.834-2.78-4.263-4.077-7.784-4.077c-3.428,0-6.857,1.298-7.691,4.077l-17.885,58.287
			c-0.092,0.37-0.186,0.741-0.186,0.927c0,2.965,4.356,5.004,7.599,5.004c2.039,0,3.614-0.649,4.077-2.41l3.522-12.325h21.221
			l3.522,12.325c0.463,1.761,2.039,2.41,4.077,2.41c3.244,0,7.599-2.131,7.599-5.004
			C401.848,125.532,401.756,125.254,401.663,124.883z M367.932,106.627l8.062-28.448l8.062,28.448H367.932z"/>
	</g>
</g>
<g>
</g>
<g>
</g>
<g>
</g>
<g>
</g>
<g>
</g>
<g>
</g>
<g>
</g>
<g>
</g>
<g>
</g>
<g>
</g>
<g>
</g>
<g>
</g>
<g>
</g>
<g>
</g>
<g>
</g>
</svg>
